

<svg version="1.0" xmlns="http://www.w3.org/2000/svg"
 width="500.000000pt" height="500.000000pt" viewBox="0 0 500.000000 500.000000"
 preserveAspectRatio="xMidYMid meet">

<g transform="translate(0.000000,500.000000) scale(0.100000,-0.100000)"
fill="#000000" stroke="none">
<path d="M2380 4019 c-362 -25 -689 -177 -955 -444 -269 -268 -419 -594 -444
-960 -30 -463 120 -867 444 -1190 177 -178 364 -295 589 -370 182 -61 247 -70
486 -70 239 0 304 9 486 70 225 75 412 192 589 370 221 220 357 471 422 775
26 122 26 478 0 600 -65 304 -201 555 -422 775 -218 219 -477 360 -768 419
-69 15 -109 19 -277 29 -25 2 -92 0 -150 -4z m389 -108 c588 -114 1041 -575
1147 -1166 23 -133 24 -366 0 -490 -101 -534 -467 -955 -970 -1120 -153 -50
-277 -69 -451 -69 -233 1 -422 45 -630 147 -412 203 -693 577 -781 1042 -24
122 -24 368 0 490 88 462 365 834 775 1040 153 76 345 131 526 149 79 8 288
-5 384 -23z"/>
<path d="M2460 3823 c0 -5 -7 -79 -15 -167 -9 -87 -14 -161 -11 -163 2 -3 22
-7 44 -10 l39 -5 7 69 7 70 57 -4 c88 -7 86 -5 79 -77 -6 -60 -5 -64 16 -70
42 -11 67 -7 67 12 0 9 7 82 15 162 8 80 15 151 15 158 0 8 -15 12 -44 12
l-44 0 -7 -71 -7 -71 -30 6 c-17 3 -49 6 -71 6 l-40 0 6 75 5 75 -44 0 c-24 0
-44 -3 -44 -7z"/>
<path d="M2009 3750 c-37 -20 -49 -48 -49 -122 0 -16 -3 -28 -6 -28 -4 0 -28
16 -54 35 -26 19 -53 35 -59 35 -15 0 -81 -32 -81 -40 0 -3 15 -14 33 -25 17
-10 55 -33 83 -51 l52 -32 -20 -97 c-11 -53 -17 -99 -14 -102 3 -4 23 2 45 12
42 19 51 36 51 101 0 22 3 43 6 47 4 3 29 -10 58 -29 28 -18 56 -34 63 -34 16
0 83 32 83 39 0 3 -40 29 -89 58 l-88 52 18 88 c27 128 28 125 -32 93z"/>
<path d="M2940 3632 c-29 -59 -63 -130 -75 -157 l-23 -50 119 -57 119 -57 15
30 15 29 -80 40 -80 40 15 30 c9 17 17 30 19 30 2 0 33 -13 69 -30 37 -16 69
-30 72 -30 2 0 11 13 19 29 l15 28 -69 32 c-72 34 -78 41 -57 78 l12 21 74
-34 c40 -19 75 -34 77 -34 2 0 10 13 18 28 17 32 22 28 -150 108 l-72 33 -52
-107z"/>
<path d="M1515 3441 c-91 -56 -126 -142 -91 -224 31 -74 131 -136 199 -123 76
14 157 107 157 179 0 128 -163 232 -265 168z m140 -106 c54 -54 61 -100 20
-140 -31 -32 -70 -32 -118 0 -95 65 -86 185 15 185 32 0 46 -7 83 -45z"/>
<path d="M3296 3365 c-87 -41 -160 -76 -162 -78 -1 -1 10 -17 26 -35 l29 -33
42 21 42 22 41 -41 40 -41 -21 -44 -22 -44 34 -32 34 -33 81 168 80 169 -37
38 c-20 21 -40 38 -43 37 -3 0 -77 -33 -164 -74z m123 -67 c-28 -56 -26 -54
-49 -33 -28 25 -26 32 18 54 52 28 55 26 31 -21z"/>
<path d="M2357 3340 c-354 -64 -630 -312 -728 -655 -26 -89 -36 -283 -20 -383
46 -293 258 -567 527 -681 100 -42 167 -60 272 -70 422 -44 811 208 950 615
29 85 42 172 42 287 0 402 -262 746 -657 863 -69 20 -116 27 -213 29 -69 2
-147 0 -173 -5z m378 -75 c231 -68 418 -224 525 -440 74 -149 85 -201 84 -385
0 -146 -2 -160 -32 -250 -94 -284 -317 -494 -601 -567 -348 -89 -720 54 -919
352 -55 84 -76 126 -108 230 -26 82 -29 103 -29 240 0 175 12 230 80 372 121
250 350 422 632 473 89 16 269 4 368 -25z"/>
<path d="M2037 2853 c-13 -12 -7 -41 9 -47 9 -3 166 -6 350 -6 315 0 335 -1
330 -17 -9 -32 -104 -447 -117 -510 l-13 -63 -81 0 -80 1 -17 37 c-47 101
-199 101 -253 0 -19 -35 -23 -37 -75 -40 -44 -2 -55 -7 -58 -22 -5 -25 14 -36
69 -36 42 0 47 -3 62 -35 27 -57 97 -89 165 -74 39 8 90 53 98 86 6 23 7 23
190 23 l183 0 17 -35 c22 -46 72 -77 129 -77 56 0 97 25 125 74 17 31 27 38
51 38 37 0 42 11 69 161 23 131 19 180 -25 249 -57 90 -126 119 -289 120 -97
0 -117 3 -113 14 13 33 29 137 24 151 -6 13 -52 15 -375 15 -203 0 -372 -3
-375 -7z m998 -250 c71 -37 115 -105 115 -175 -1 -57 -34 -211 -47 -215 -7 -3
-21 13 -32 34 -21 42 -58 68 -111 78 -51 9 -119 -28 -143 -77 l-19 -38 -69 0
c-38 0 -69 4 -69 9 0 5 20 98 45 207 25 108 45 199 45 201 0 3 55 3 123 1 98
-3 130 -8 162 -25z m-702 -345 c34 -17 46 -39 47 -80 0 -28 -7 -42 -31 -62
-48 -41 -106 -30 -134 24 -40 78 41 159 118 118z m671 -13 c19 -18 26 -34 26
-62 -1 -62 -45 -100 -106 -89 -42 8 -64 39 -64 89 0 78 86 116 144 62z"/>
<path d="M1914 2726 c-12 -31 7 -36 147 -36 140 0 140 0 137 23 -3 21 -6 22
-141 25 -114 2 -138 0 -143 -12z"/>
<path d="M1853 2545 c-11 -31 13 -36 178 -33 156 3 164 4 164 23 0 19 -8 20
-168 23 -146 2 -168 0 -174 -13z"/>
<path d="M1800 2375 c-7 -8 -10 -22 -6 -30 5 -13 33 -15 203 -13 184 3 198 4
201 22 2 10 -2 22 -10 27 -7 5 -95 9 -194 9 -149 0 -184 -3 -194 -15z"/>
<path d="M3565 3042 c-82 -36 -151 -67 -153 -68 -2 -1 18 -47 45 -101 41 -83
54 -101 88 -120 63 -36 134 -27 204 25 49 36 66 85 53 147 -12 56 -67 185 -79
184 -4 0 -75 -30 -158 -67z m154 -73 c18 -52 13 -79 -20 -110 -35 -33 -90 -46
-125 -30 -25 11 -66 69 -61 85 3 10 164 84 184 85 6 1 16 -13 22 -30z"/>
<path d="M1228 3040 c-21 -16 -98 -171 -98 -197 0 -4 35 -22 78 -40 42 -17
114 -47 158 -66 l81 -35 37 89 c43 107 47 159 12 194 -34 34 -73 42 -108 22
-24 -14 -28 -14 -28 -2 0 49 -86 72 -132 35z m79 -86 c3 -8 1 -29 -4 -47 -7
-26 -14 -31 -33 -29 -39 4 -46 18 -27 57 18 37 53 48 64 19z m133 -39 c10 -12
9 -24 -4 -60 l-17 -44 -32 13 c-25 10 -31 18 -29 37 6 57 54 88 82 54z"/>
<path d="M1341 2349 c-100 -21 -148 -127 -101 -224 53 -110 212 -111 264 -1
56 118 -40 252 -163 225z"/>
<path d="M3559 2338 c-55 -31 -82 -87 -77 -154 8 -90 66 -146 153 -146 93 0
159 73 152 170 -9 120 -128 189 -228 130z"/>
<path d="M1640 1624 c-102 -86 -99 -75 -35 -129 44 -38 58 -46 68 -36 9 10 3
20 -28 46 -22 19 -37 35 -35 37 3 2 12 9 22 16 14 11 22 8 53 -19 28 -25 39
-29 48 -20 9 10 5 19 -21 42 -27 24 -31 33 -22 45 18 20 28 18 67 -17 24 -20
39 -27 45 -21 13 13 7 23 -50 70 l-47 40 -65 -54z"/>
<path d="M3175 1615 c-31 -30 -33 -78 -4 -98 16 -11 29 -12 60 -4 29 7 43 7
52 -2 17 -17 -5 -46 -36 -46 -30 0 -52 -18 -43 -34 9 -14 41 -14 69 0 55 28
74 91 37 124 -18 16 -25 17 -60 6 -42 -13 -60 -9 -60 13 0 23 28 40 44 27 10
-9 16 -8 26 3 33 40 -46 51 -85 11z"/>
<path d="M1890 1476 l0 -54 -60 -22 c-33 -12 -60 -24 -60 -26 0 -2 9 -8 20
-14 15 -8 29 -6 59 9 21 11 41 17 45 14 3 -4 6 -23 6 -42 0 -25 6 -40 20 -48
18 -12 19 -9 22 49 l3 61 53 20 c28 11 52 23 52 28 0 17 -40 19 -69 5 -44 -23
-51 -20 -51 23 0 34 -12 51 -36 51 -2 0 -4 -24 -4 -54z"/>
<path d="M2962 1484 c-35 -24 -46 -62 -27 -90 12 -19 24 -24 60 -24 47 0 59
-8 49 -35 -6 -13 -15 -16 -43 -11 -49 7 -69 -5 -45 -29 38 -38 134 9 134 66 0
41 -25 61 -74 57 -35 -3 -41 0 -44 18 -4 25 24 40 43 24 13 -10 45 -4 45 9 0
31 -62 41 -98 15z"/>
<path d="M2120 1335 c-46 -99 -46 -101 -23 -109 17 -7 30 6 39 41 5 19 11 21
57 16 44 -4 56 -1 75 16 42 41 21 90 -43 105 -16 4 -38 9 -48 12 -14 4 -25
-12 -57 -81z m118 8 c4 -24 -19 -36 -54 -27 -22 6 -23 7 -9 35 13 23 19 27 38
20 12 -4 23 -17 25 -28z"/>
<path d="M2735 1406 l-50 -12 -3 -102 c-3 -116 -8 -111 88 -88 38 9 56 18 58
30 4 19 -1 18 -85 -1 -19 -4 -23 -1 -23 20 0 26 5 30 68 42 19 4 32 13 32 22
0 12 -9 14 -50 8 -49 -7 -50 -6 -50 18 0 21 6 27 33 32 57 12 67 16 67 31 0
16 -16 16 -85 0z"/>
<path d="M2397 1299 c-22 -110 -22 -129 2 -129 14 0 20 10 25 41 6 37 9 40 34
37 23 -3 27 -8 30 -40 3 -33 7 -38 27 -38 26 0 26 3 10 85 -3 13 3 25 15 33
21 13 28 66 10 77 -5 3 -38 8 -73 12 l-64 6 -16 -84z m116 28 c8 -20 -5 -35
-35 -42 -30 -8 -42 6 -33 35 7 23 60 28 68 7z"/>
</g>
</svg>
