<svg _ngcontent-hhr-c16="" version="1.0" xmlns="http://www.w3.org/2000/svg" width="500px" height="500px"
    viewBox="0 0 247.000000 256.000000" preserveAspectRatio="xMidYMid meet">
    <g _ngcontent-hhr-c16="" transform="translate(-250 550) scale(0.300000,-0.300000)" fill="red" stroke="none">
        <g _ngcontent-hhr-c16="" fill="white">
            <path _ngcontent-hhr-c16=""
                d="M1240 1676 c0 -2 44 -14 98 -26 53 -12 103 -26 110 -29 8 -4 -26 -19 -80 -35 l-93 -27 -124 35 c-83 23 -132 31 -150 26 -31 -8 -43 -3 144 -55 l130 -37 80 22 c135 36 217 61 213 65 -2 2 -63 17 -136 34 -121 28 -192 38 -192 27z">
            </path>
        </g>
        <path _ngcontent-hhr-c16=""
            d="M970 1536 c0 -28 4 -36 18 -36 24 0 32 -8 25 -26 -4 -11 -28 -14 -99 -14 -147 0 -114 -19 39 -22 109 -3 132 -6 132 -18 0 -12 -18 -16 -92 -18 -51 -1 -93 -7 -93 -12 0 -5 33 -10 73 -12 56 -2 72 -6 72 -18 0 -11 -14 -16 -57 -18 -92 -5 -67 -22 31 -22 62 0 92 -4 100 -13 17 -22 3 -27 -75 -27 -118 0 -112 -11 74 -119 68 -39 126 -71 130 -71 10 0 5 391 -5 400 -4 5 -60 22 -123 40 -63 17 -123 34 -132 36 -15 4 -18 -1 -18 -30z">
        </path>
        <g _ngcontent-hhr-c16="" fill="white">
            <path _ngcontent-hhr-c16=""
                d="M1547 1563 c-3 -5 -5 -70 -6 -147 0 -76 -2 -140 -3 -141 -6 -6 -188 -95 -193 -95 -3 0 -5 72 -5 160 0 153 -1 160 -20 160 -19 0 -20 -7 -20 -209 l0 -210 143 83 142 82 3 162 c2 155 2 162 -17 162 -11 0 -22 -3 -24 -7z">
            </path>
        </g>
    </g>
</svg>